<?xml version="1.0" encoding="UTF-8" standalone="no"?>
<!-- Created with Inkscape (http://www.inkscape.org/) -->

<svg
   xmlns:dc="http://purl.org/dc/elements/1.1/"
   xmlns:cc="http://creativecommons.org/ns#"
   xmlns:rdf="http://www.w3.org/1999/02/22-rdf-syntax-ns#"
   xmlns:svg="http://www.w3.org/2000/svg"
   xmlns="http://www.w3.org/2000/svg"
   xmlns:sodipodi="http://sodipodi.sourceforge.net/DTD/sodipodi-0.dtd"
   xmlns:inkscape="http://www.inkscape.org/namespaces/inkscape"
   width="16"
   height="16"
   viewBox="0 0 16 16"
   id="svg4183"
   version="1.1"
   inkscape:version="0.91 r"
   sodipodi:docname="favicon.svg">
  <defs
     id="defs4185" />
  <sodipodi:namedview
     id="base"
     pagecolor="#ffffff"
     bordercolor="#666666"
     borderopacity="1"
     inkscape:pageopacity="0.0"
     inkscape:pageshadow="2"
     inkscape:zoom="32"
     inkscape:cx="6.697724"
     inkscape:cy="8.5866429"
     inkscape:document-units="px"
     inkscape:current-layer="layer1"
     showgrid="false"
     units="px"
     inkscape:window-width="1855"
     inkscape:window-height="1056"
     inkscape:window-x="65"
     inkscape:window-y="24"
     inkscape:window-maximized="1" />
  <metadata
     id="metadata4188">
    <rdf:RDF>
      <cc:Work
         rdf:about="">
        <dc:format>image/svg+xml</dc:format>
        <dc:type
           rdf:resource="http://purl.org/dc/dcmitype/StillImage" />
        <dc:title />
      </cc:Work>
    </rdf:RDF>
  </metadata>
  <g
     inkscape:label="レイヤー 1"
     inkscape:groupmode="layer"
     id="layer1"
     transform="translate(0,-1036.3622)">
    <rect
       style="fill:#32a6d4;fill-opacity:1;stroke:none"
       id="rect4136"
       width="16"
       height="16"
       x="0"
       y="1036.3622"
       ry="2.84375" />
    <path
       style="opacity:1;fill:#ffffff;fill-opacity:1;fill-rule:evenodd;stroke:none;stroke-width:2.5999999;stroke-linecap:round;stroke-linejoin:miter;stroke-miterlimit:4;stroke-dasharray:none;stroke-dashoffset:0;stroke-opacity:1"
       clip-path="none"
       d="m 4.628836,1038.4543 a 6.1606212,6.1606212 0 0 0 -1.2565839,8.6214 6.1606212,6.1606212 0 0 0 4.4875655,2.4581 5.9881241,5.9881241 0 0 1 -3.5464751,-2.2683 5.9881241,5.9881241 0 0 1 1.2209808,-8.3795 5.9881241,5.9881241 0 0 1 6.3503027,-0.5022 6.1606212,6.1606212 0 0 0 -7.2557901,0.07 z"
       id="path4254-5"
       inkscape:connector-curvature="0"
       class="topUIElement" />
    <path
       style="opacity:1;fill:#ffffff;fill-opacity:1;fill-rule:evenodd;stroke:none;stroke-width:2.5999999;stroke-linecap:round;stroke-linejoin:miter;stroke-miterlimit:4;stroke-dasharray:none;stroke-dashoffset:0;stroke-opacity:1"
       d="m 12.537132,1040.1763 a 4.8299271,4.8299271 0 0 0 -3.4606728,-1.3904 6.3331187,5.0517097 44.670758 0 1 3.0974608,1.8629 6.3331187,5.0517097 44.670758 0 1 1.787144,2.7537 4.8299271,4.8299271 0 0 0 -1.423932,-3.2262 z"
       id="path4284-4"
       inkscape:connector-curvature="0"
       class="topUIElement" />
    <path
       style="opacity:1;fill:#ffffff;fill-opacity:1;fill-rule:evenodd;stroke:none;stroke-width:2.5999999;stroke-linecap:round;stroke-linejoin:miter;stroke-miterlimit:4;stroke-dasharray:none;stroke-dashoffset:0;stroke-opacity:1"
       d="m 3.3359391,1049.5246 a 6.9350976,6.9350976 0 0 0 9.2243849,0.3962 8.5033358,8.8518329 44.225959 0 1 -9.2165881,-1.653 8.5033358,8.8518329 44.225959 0 1 -2.0899618,-3.4012 6.9350976,6.9350976 0 0 0 2.082165,4.658 z"
       id="path4291-3"
       inkscape:connector-curvature="0"
       class="topUIElement" />
  </g>
</svg>
