<?xml version="1.0" encoding="UTF-8" standalone="no"?>
<!-- Created with Inkscape (http://www.inkscape.org/) -->

<svg
   xmlns:dc="http://purl.org/dc/elements/1.1/"
   xmlns:cc="http://creativecommons.org/ns#"
   xmlns:rdf="http://www.w3.org/1999/02/22-rdf-syntax-ns#"
   xmlns:svg="http://www.w3.org/2000/svg"
   xmlns="http://www.w3.org/2000/svg"
   xmlns:sodipodi="http://sodipodi.sourceforge.net/DTD/sodipodi-0.dtd"
   xmlns:inkscape="http://www.inkscape.org/namespaces/inkscape"
   width="220"
   height="50"
   viewBox="0 0 220 50"
   id="svg4161"
   version="1.1"
   inkscape:version="0.91 r"
   inkscape:export-filename="/home/tobi/g4793.png"
   inkscape:export-xdpi="539.76306"
   inkscape:export-ydpi="539.76306"
   sodipodi:docname="topLogo.svg">
  <defs
     id="defs4163">
    <clipPath
       clipPathUnits="userSpaceOnUse"
       id="clipPath4850">
      <rect
         style="opacity:1;fill:#36adce;fill-opacity:1;fill-rule:evenodd;stroke:none;stroke-width:13.30000019;stroke-linecap:square;stroke-linejoin:miter;stroke-miterlimit:4;stroke-dasharray:none;stroke-dashoffset:3.84000015;stroke-opacity:1"
         id="rect4852"
         width="102.5"
         height="102.5"
         x="47.5"
         y="949.86218" />
    </clipPath>
    <clipPath
       clipPathUnits="userSpaceOnUse"
       id="clipPath4854">
      <rect
         style="opacity:1;fill:#36adce;fill-opacity:1;fill-rule:evenodd;stroke:none;stroke-width:13.30000019;stroke-linecap:square;stroke-linejoin:miter;stroke-miterlimit:4;stroke-dasharray:none;stroke-dashoffset:3.84000015;stroke-opacity:1"
         id="rect4856"
         width="102.5"
         height="102.5"
         x="47.5"
         y="949.86218" />
    </clipPath>
  </defs>
  <sodipodi:namedview
     id="base"
     pagecolor="#262626"
     bordercolor="#666666"
     borderopacity="1.0"
     inkscape:pageopacity="1"
     inkscape:pageshadow="2"
     inkscape:zoom="8.9802562"
     inkscape:cx="36.069186"
     inkscape:cy="14.572251"
     inkscape:document-units="px"
     inkscape:current-layer="g4801"
     showgrid="false"
     units="px"
     inkscape:window-width="1855"
     inkscape:window-height="1056"
     inkscape:window-x="65"
     inkscape:window-y="24"
     inkscape:window-maximized="1" />
  <metadata
     id="metadata4166">
    <rdf:RDF>
      <cc:Work
         rdf:about="">
        <dc:format>image/svg+xml</dc:format>
        <dc:type
           rdf:resource="http://purl.org/dc/dcmitype/StillImage" />
        <dc:title />
      </cc:Work>
    </rdf:RDF>
  </metadata>
  <g
     inkscape:label="レイヤー 1"
     inkscape:groupmode="layer"
     id="layer1"
     transform="translate(0,-1002.3622)">
    <g
       transform="matrix(1.2052689,0,0,1.205272,0.8293943,-183.92239)"
       id="g11">
      <path
         sodipodi:nodetypes="cccccccccccccc"
         inkscape:connector-curvature="0"
         id="path4784"
         d="m 54.071734,1014.0542 1.99969,0 0,-20.91313 9,18.92113 2,-0.016 9,-18.84223 0,20.85023 2,0 0,-24.00003 -3,0 -9,19.00003 -9,-19.00003 -3,0 z"
         style="fill:#ffffff;fill-opacity:1;fill-rule:evenodd;stroke:none;stroke-width:1px;stroke-linecap:butt;stroke-linejoin:miter;stroke-opacity:1" />
      <path
         inkscape:connector-curvature="0"
         id="path4806"
         d="m 89.071424,998.05417 a 8,8 0 0 0 -8,8.00003 8,8 0 0 0 8,8 8,8 0 0 0 6,-2.7188 l 0,2.7188 2,0 0,-8 0,-8.00003 -2,0 0,2.72263 a 8,8 0 0 0 -6,-2.72263 z m 0,2.00003 a 6,6 0 0 1 6,6 6,6 0 0 1 -6,6 6,6 0 0 1 -6,-6 6,6 0 0 1 6,-6 z"
         style="opacity:1;fill:#ffffff;fill-opacity:1;fill-rule:evenodd;stroke:none;stroke-width:2.20000005;stroke-linecap:butt;stroke-linejoin:bevel;stroke-miterlimit:4;stroke-dasharray:none;stroke-dashoffset:3.84000015;stroke-opacity:1" />
      <path
         inkscape:connector-curvature="0"
         id="path4806-8"
         d="m 108.07142,998.05417 c -4.41827,0 -8,3.58173 -8,8.00003 0,4.4183 3.58173,8 8,8 2.29763,0 4.48323,-0.9929 6,-2.7187 l 0,3.9062 c 0,3.3137 -2.68629,6 -6,6 -3.3137,0 -6,-2.6863 -6,-6 l -2,0 c 0,4.4183 3.58173,8 8,8 4.41828,0 8,-3.5817 8,-8 l 0,-9.1875 0,-8.00003 -2,0 0,2.72273 c -1.51608,-1.72723 -3.70177,-2.71913 -6,-2.72273 z m 0,1.99993 c 3.31371,0 6,2.6864 6,6.0001 0,3.3137 -2.68629,6 -6,6 -3.3137,0 -6,-2.6863 -6,-6 0,-3.3137 2.6863,-6.0001 6,-6.0001 z"
         style="opacity:1;fill:#ffffff;fill-opacity:1;fill-rule:evenodd;stroke:none;stroke-width:2.20000005;stroke-linecap:butt;stroke-linejoin:bevel;stroke-miterlimit:4;stroke-dasharray:none;stroke-dashoffset:3.84000015;stroke-opacity:1" />
      <path
         inkscape:connector-curvature="0"
         id="path4838"
         d="m 119.07142,998.05417 0,16.00003 2,0 0,-8 c 0,-3.3137 2.6863,-6 6,-6 3.31371,0 6,2.6863 6,6 l 0,8 2,0 0,-8 c 0,-4.4183 -3.58172,-8.00003 -8,-8.00003 -2.3924,0 -4.53397,1.0562 -6,2.72073 l 0,-2.72073 -2,0 z"
         style="opacity:1;fill:#ffffff;fill-opacity:1;fill-rule:evenodd;stroke:none;stroke-width:2;stroke-linecap:butt;stroke-linejoin:bevel;stroke-miterlimit:4;stroke-dasharray:none;stroke-dashoffset:3.84000015;stroke-opacity:1" />
      <path
         id="path4838-6-2"
         d="m 146.07142,998.05417 a 8,8 0 0 0 -8,8.00003 8,8 0 0 0 8,8 8,8 0 0 0 8,-8 8,8 0 0 0 -8,-8.00003 z m 0,2.00003 a 6,6 0 0 1 6,6 6,6 0 0 1 -6,6 6,6 0 0 1 -6,-6 6,6 0 0 1 6,-6 z"
         style="opacity:1;fill:#ffffff;fill-opacity:1;fill-rule:evenodd;stroke:none;stroke-width:2;stroke-linecap:butt;stroke-linejoin:bevel;stroke-miterlimit:4;stroke-dasharray:none;stroke-dashoffset:3.84000015;stroke-opacity:1"
         inkscape:connector-curvature="0" />
      <path
         inkscape:connector-curvature="0"
         id="path4838-0"
         d="m 157.07142,998.05417 0,16.00003 2,0 0,-8 c 0,-3.3137 2.68629,-6 6,-6 3.31371,0 6,2.6863 6,6 l 0,8 2,0 0,-8 c 0,-4.4183 -3.58172,-8.00003 -8,-8.00003 -2.3924,0 -4.53398,1.0562 -6,2.72073 l 0,-2.72073 -2,0 z"
         style="opacity:1;fill:#ffffff;fill-opacity:1;fill-rule:evenodd;stroke:none;stroke-width:2;stroke-linecap:butt;stroke-linejoin:bevel;stroke-miterlimit:4;stroke-dasharray:none;stroke-dashoffset:3.84000015;stroke-opacity:1" />
    </g>
    <g
       id="g4801"
       style="fill:#ffffff;fill-opacity:1;stroke:none">
      <path
         style="opacity:1;fill:#ffffff;fill-opacity:1;fill-rule:evenodd;stroke:none;stroke-width:2.5999999;stroke-linecap:round;stroke-linejoin:miter;stroke-miterlimit:4;stroke-dasharray:none;stroke-dashoffset:0;stroke-opacity:1"
         clip-path="none"
         d="m 16.639084,1010.7788 a 17.292942,17.292942 0 0 0 -3.527247,24.2 17.292942,17.292942 0 0 0 12.596653,6.9 16.80874,16.80874 0 0 1 -9.955,-6.3669 16.80874,16.80874 0 0 1 3.427308,-23.5215 16.80874,16.80874 0 0 1 17.825381,-1.4098 17.292942,17.292942 0 0 0 -20.367095,0.1982 z"
         id="path4254-5"
         inkscape:connector-curvature="0"
         class="topUIElement" />
      <path
         style="opacity:1;fill:#ffffff;fill-opacity:1;fill-rule:evenodd;stroke:none;stroke-width:2.5999999;stroke-linecap:round;stroke-linejoin:miter;stroke-miterlimit:4;stroke-dasharray:none;stroke-dashoffset:0;stroke-opacity:1"
         d="m 38.837773,1015.6125 a 13.557667,13.557667 0 0 0 -9.714154,-3.9031 17.777144,14.180213 44.670758 0 1 8.69461,5.2293 17.777144,14.180213 44.670758 0 1 5.016538,7.7294 13.557667,13.557667 0 0 0 -3.996994,-9.0556 z"
         id="path4284-4"
         inkscape:connector-curvature="0"
         class="topUIElement" />
      <path
         style="opacity:1;fill:#ffffff;fill-opacity:1;fill-rule:evenodd;stroke:none;stroke-width:2.5999999;stroke-linecap:round;stroke-linejoin:miter;stroke-miterlimit:4;stroke-dasharray:none;stroke-dashoffset:0;stroke-opacity:1"
         d="m 13.009906,1041.8532 a 19.466907,19.466907 0 0 0 25.892967,1.1118 23.868971,24.847207 44.225959 0 1 -25.871081,-4.64 23.868971,24.847207 44.225959 0 1 -5.8665495,-9.5469 19.466907,19.466907 0 0 0 5.8446635,13.0751 z"
         id="path4291-3"
         inkscape:connector-curvature="0"
         class="topUIElement" />
    </g>
  </g>
</svg>
