<?xml version="1.0" encoding="UTF-8" standalone="no"?>
<svg width="16" height="16" viewBox="0 0 16 16">
  <circle cx="8" cy="8" r="8" class="bg" />
  <g class="fg">
    <path d="M 4.315782,2.1959848 A 6.0524154,6.0524154 0 0 0 3.0812688,10.665958 6.0524154,6.0524154 0 0 0 7.4900143,13.080883 5.8829481,5.8829481 0 0 1 4.0058298,10.852424 5.8829481,5.8829481 0 0 1 5.2053652,2.6201024 5.8829481,5.8829481 0 0 1 11.444131,2.1267231 6.0524154,6.0524154 0 0 0 4.3157819,2.1954936 Z" />
    <path d="M 12.085176,3.8877394 A 4.7450938,4.7450938 0 0 0 8.6852867,2.5217606 6.2218832,4.962981 44.670758 0 1 11.728343,4.3519404 6.2218832,4.962981 44.670758 0 1 13.484098,7.0572741 4.7450938,4.7450938 0 0 0 12.085176,3.8877394 Z" />
    <path d="M 3.0455936,13.071845 A 6.8132889,6.8132889 0 0 0 12.107961,13.461086 8.3539824,8.6963584 44.225959 0 1 3.0532535,11.83712 8.3539824,8.6963584 44.225959 0 1 1,8.4956586 6.8132889,6.8132889 0 0 0 3.0455936,13.071845 Z" />
  </g>
</svg>
