<?xml version="1.0" encoding="UTF-8" standalone="no"?>
<!DOCTYPE svg PUBLIC "-//W3C//DTD SVG 1.1//EN" "http://www.w3.org/Graphics/SVG/1.1/DTD/svg11.dtd">
<svg width="24" height="24" viewBox="0 0 16 16" aria-labelledby="gplustitle">
	<g style="fill:#000000;fill-opacity:1;stroke:none" id="svg-googleplus" class="svg-link" transform="matrix(1.25,0,0,-1.25,0,16.000022)">
		<title id="gplustitle">Google+</title>
		<g transform="scale(0.1,0.1)">
			<path d="m 0.02497097,63.94869 c -0.79639,20.97008 17.57190003,40.34736 38.56121003,40.59997 10.69876,0.91217 21.10592,-3.24311 29.20248,-10.01983 -3.3203,-3.6501 -6.69813,-7.26088 -10.31005,-10.64011 -7.12587,4.3307 -15.70812,7.63134 -24.03763,4.69977 -13.43655,-3.82549 -21.57198,-19.68883 -16.60107,-32.8339 4.11627,-13.72745 20.81431,-21.26197 33.901,-15.49425 6.77658,2.42637 11.24256,8.67824 13.20344,15.39743 -7.76663,0.15436 -15.53326,0.0575 -23.29976,0.27084 -0.0192,4.62119 -0.039,9.22414 -0.0192,13.84533 12.9507,0.0182 25.92119,0.0575 38.89112,-0.0589 0.79598,-11.31932 -0.87385,-23.43574 -8.23254,-32.52236 -10.07723,-12.97105 -28.6977,-16.7769 -43.8428,-11.6898 -16.07707,5.28216 -27.76589003,21.47528 -27.41618003,38.44585" />
			<path d="m 104.75792,81.475201 c 3.84514,0 7.68888,0 11.55368,0 0.0197,-3.86339 0.0575,-7.74643 0.0772,-11.61122 3.86339,-0.0379 7.74782,-0.0575 11.61121,-0.0772 0,-3.86479 0,-7.70854 0,-11.57193 -3.86339,-0.0196 -7.74782,-0.0393 -11.61121,-0.0589 -0.0393,-3.88303 -0.0575,-7.74783 -0.0772,-11.63086 -3.8648,0.0196 -7.72819,0 -11.57333,0 -0.0379,3.88303 -0.0379,7.74783 -0.0772,11.61122 -3.86339,0.0393 -7.747829,0.0589 -11.611229,0.0786 0,3.86339 0,7.70714 0,11.57193 3.8634,0.0196 7.728189,0.0393 11.611229,0.0772 0.0196,3.86479 0.0589,7.74783 0.0968,11.61122" />
		</g>
	</g>
</svg>
