<svg width="24" height="24" viewBox="0 0 24 24" aria-labelledby="twitchtitle">
    <title id="twitchtitle">Twitch</title>
    <g transform="matrix(1.25,0,0,-1.25,0,24)" class="svg-link svg-twitch">
        <g transform="translate(-6.131936,3e-4)">
            <g transform="matrix(0.064,0,0,0.064,7.80336,19.1997)">
                <path style="fill-opacity:1;fill-rule:nonzero;stroke:none" d="m 0,0 -19.565,-52.175 0,-208.675 71.705,0 0,-39.15 39.148,0 39.109,39.15 58.68,0 78.256,78.228 L 267.333,0 0,0 Z m 26.066,-26.071 215.19,0 0,-143.481 -45.656,-45.659 -71.716,0 -39.098,-39.096 0,39.096 -58.72,0 0,189.14 z" />
            </g>
            <path style="fill-opacity:1;fill-rule:nonzero;stroke:none" d="m 14.062547,9.1820552 1.669376,0 0,5.0081278 -1.669376,0 0,-5.0081278 z m 4.590144,0 1.669056,0 0,5.0081278 -1.669056,0 0,-5.0081278 z" />
        </g>
    </g>
</svg>
