<?xml version="1.0" encoding="UTF-8" standalone="no"?>
<!-- Created with Inkscape (http://www.inkscape.org/) -->

<svg
   xmlns:dc="http://purl.org/dc/elements/1.1/"
   xmlns:cc="http://creativecommons.org/ns#"
   xmlns:rdf="http://www.w3.org/1999/02/22-rdf-syntax-ns#"
   xmlns:svg="http://www.w3.org/2000/svg"
   xmlns="http://www.w3.org/2000/svg"
   xmlns:sodipodi="http://sodipodi.sourceforge.net/DTD/sodipodi-0.dtd"
   xmlns:inkscape="http://www.inkscape.org/namespaces/inkscape"
   id="svg2"
   version="1.1"
   inkscape:version="0.91 r"
   xml:space="preserve"
   width="24"
   height="24"
   viewBox="0 0 24 24"
   sodipodi:docname="twitch.svg"><metadata
     id="metadata8"><rdf:RDF><cc:Work
         rdf:about=""><dc:format>image/svg+xml</dc:format><dc:type
           rdf:resource="http://purl.org/dc/dcmitype/StillImage" /><dc:title></dc:title></cc:Work></rdf:RDF></metadata><defs
     id="defs6" /><sodipodi:namedview
     pagecolor="#ffffff"
     bordercolor="#666666"
     borderopacity="1"
     objecttolerance="10"
     gridtolerance="10"
     guidetolerance="10"
     inkscape:pageopacity="0"
     inkscape:pageshadow="2"
     inkscape:window-width="1855"
     inkscape:window-height="1176"
     id="namedview4"
     showgrid="false"
     inkscape:zoom="10.069333"
     inkscape:cx="9.7868688"
     inkscape:cy="14.70475"
     inkscape:window-x="65"
     inkscape:window-y="24"
     inkscape:window-maximized="1"
     inkscape:current-layer="g10" /><g
     id="g10"
     inkscape:groupmode="layer"
     inkscape:label="Twitch_GlitchIcon_purple"
     transform="matrix(1.25,0,0,-1.25,0,24)"
     class="svg-link svg-twitch"><g
       id="g4163"
       transform="translate(-6.131936,3e-4)"><g
         transform="matrix(0.064,0,0,0.064,7.80336,19.1997)"
         id="g12"><path
           inkscape:connector-curvature="0"
           id="path14"
           style="fill:#5d399d;fill-opacity:1;fill-rule:nonzero;stroke:none"
           d="m 0,0 -19.565,-52.175 0,-208.675 71.705,0 0,-39.15 39.148,0 39.109,39.15 58.68,0 78.256,78.228 L 267.333,0 0,0 Z m 26.066,-26.071 215.19,0 0,-143.481 -45.656,-45.659 -71.716,0 -39.098,-39.096 0,39.096 -58.72,0 0,189.14 z" /></g><path
         inkscape:connector-curvature="0"
         id="path16"
         style="fill:#5d399d;fill-opacity:1;fill-rule:nonzero;stroke:none"
         d="m 14.062547,9.1820552 1.669376,0 0,5.0081278 -1.669376,0 0,-5.0081278 z m 4.590144,0 1.669056,0 0,5.0081278 -1.669056,0 0,-5.0081278 z" /></g></g></svg>