<?xml version="1.0" encoding="UTF-8" standalone="no"?>
<!DOCTYPE svg PUBLIC "-//W3C//DTD SVG 1.1//EN" "http://www.w3.org/Graphics/SVG/1.1/DTD/svg11.dtd">
<svg width="24" height="24" viewBox="0 0 16 16" aria-labelledby="youtubetitle">
	<title id="youtubetitle">YouTube</title>
	<g id="g1" transform="matrix(1.25,0,0,-1.25,0,15.999976)">
		<g id="g2" transform="matrix(0.00125312,0,0,0.00125312,0,1.8986297)">
			<path d="m 4052.72,2267.19 -0.47,2870 2760,-1440 -2759.53,-1430 z m 6059.78,3367.19 c 0,0 -99.8,703.89 -406.08,1013.86 -388.42,406.83 -823.8,408.85 -1023.46,432.67 -1429.37,103.32 -3573.5,103.32 -3573.5,103.32 l -4.44,0 c 0,0 -2144.08,0 -3573.5,-103.32 C 1331.85,7057.09 896.625,7055.07 508.066,6648.24 201.813,6338.27 102.152,5634.38 102.152,5634.38 102.152,5634.38 0,4807.78 0,3981.19 l 0,-774.93 c 0,-826.58 102.152,-1653.17 102.152,-1653.17 0,0 99.661,-703.899 405.914,-1013.871 C 896.625,132.379 1407.03,145.25 1634.36,102.609 2451.53,24.25 5107.25,0 5107.25,0 c 0,0 2146.34,3.23047 3575.71,106.551 199.66,23.82 635.04,25.828 1023.46,432.668 306.28,309.972 406.08,1013.871 406.08,1013.871 0,0 102,826.59 102,1653.17 l 0,774.93 c 0,826.59 -102,1653.19 -102,1653.19" style="fill:#000000;fill-opacity:1;fill-rule:nonzero;stroke:none" id="svg-youtube" class="svg-link svg-youtube" />
		</g>
	</g>
</svg>
